<?xml version="1.0" standalone="no"?>
<!DOCTYPE svg PUBLIC "-//W3C//DTD SVG 20010904//EN"
 "http://www.w3.org/TR/2001/REC-SVG-20010904/DTD/svg10.dtd">
<svg version="1.0" xmlns="http://www.w3.org/2000/svg"
 width="1937.000000pt" height="1937.000000pt" viewBox="0 0 1937.000000 1937.000000"
 preserveAspectRatio="xMidYMid meet">
<metadata>
Created by potrace 1.14, written by Peter Selinger 2001-2017
</metadata>
<g transform="translate(0.000000,1937.000000) scale(0.100000,-0.100000)"
fill="#000000" stroke="none">
<path d="M19240 19257 c-126 -121 -615 -540 -784 -672 -21 -16 -44 -35 -50
-40 -10 -10 -415 -334 -496 -397 -516 -404 -750 -558 -1165 -768 -93 -47 -195
-96 -225 -109 -194 -83 -281 -119 -410 -168 -80 -30 -149 -56 -155 -57 -5 -2
-30 -9 -55 -16 -25 -8 -47 -14 -50 -15 -3 -1 -50 -15 -105 -32 -89 -28 -274
-80 -315 -88 -8 -2 -55 -12 -105 -24 -103 -23 -344 -66 -425 -77 -30 -4 -66
-8 -80 -10 -14 -2 -52 -6 -85 -9 -33 -4 -71 -8 -83 -10 -129 -21 -702 -21
-811 0 -11 2 -48 6 -83 10 -35 3 -99 13 -143 21 -44 8 -96 17 -115 20 -107 17
-382 97 -529 156 -41 16 -171 76 -288 134 -117 57 -215 104 -218 104 -2 0 -42
18 -89 40 -47 22 -87 40 -90 40 -4 0 -25 9 -49 19 -180 83 -683 257 -942 326
-244 65 -496 123 -660 151 -16 2 -66 11 -110 19 -114 19 -343 52 -422 60 -29
3 -74 7 -100 10 -338 35 -730 46 -1103 31 -102 -4 -201 -9 -220 -11 -19 -2
-73 -6 -120 -10 -47 -3 -96 -8 -110 -10 -14 -2 -59 -7 -100 -10 -41 -4 -84 -9
-95 -11 -11 -2 -42 -6 -70 -10 -27 -3 -117 -16 -200 -29 -149 -25 -174 -29
-228 -41 -16 -3 -38 -7 -50 -9 -72 -10 -340 -73 -522 -122 -245 -66 -665 -203
-689 -225 -6 -4 -18 -8 -28 -8 -10 0 -26 -4 -36 -10 -9 -5 -78 -34 -152 -63
-451 -180 -935 -437 -1375 -730 -110 -74 -363 -253 -375 -266 -3 -3 -34 -28
-70 -56 -59 -45 -310 -251 -370 -304 -217 -191 -529 -504 -690 -690 -30 -35
-64 -74 -75 -87 -11 -12 -31 -35 -44 -50 -13 -16 -36 -43 -50 -59 -14 -17 -39
-48 -56 -69 -16 -21 -35 -44 -41 -50 -5 -6 -44 -56 -85 -111 -40 -55 -77 -102
-80 -105 -15 -12 -224 -319 -310 -455 -374 -588 -673 -1244 -874 -1915 -43
-143 -110 -391 -118 -440 -3 -14 -12 -52 -20 -85 -9 -33 -18 -73 -20 -90 -3
-16 -15 -77 -26 -135 -33 -166 -40 -202 -46 -250 -3 -25 -10 -67 -15 -95 -5
-27 -12 -77 -15 -110 -4 -32 -8 -67 -10 -77 -2 -9 -7 -48 -10 -85 -4 -37 -8
-79 -10 -93 -2 -14 -7 -61 -10 -105 -3 -44 -8 -96 -10 -115 -23 -191 -23 -866
0 -1130 2 -25 6 -79 10 -120 6 -74 9 -106 21 -205 9 -80 14 -124 29 -225 8
-52 16 -113 20 -135 3 -23 7 -52 10 -65 5 -25 20 -107 31 -165 3 -16 12 -64
21 -105 8 -41 17 -84 19 -95 29 -155 202 -772 244 -870 5 -11 21 -54 35 -95
39 -112 104 -278 131 -338 13 -29 24 -55 24 -57 0 -3 16 -39 35 -81 19 -41 35
-77 35 -79 0 -7 69 -152 142 -300 63 -127 179 -400 169 -400 -1 0 3 -13 9 -30
12 -31 49 -155 55 -188 3 -10 7 -27 10 -37 6 -20 5 -15 33 -160 12 -58 23
-125 26 -150 13 -103 16 -129 22 -200 3 -41 7 -93 9 -115 5 -50 5 -413 0 -480
-2 -27 -7 -90 -11 -140 -3 -49 -7 -97 -9 -105 -1 -8 -6 -46 -9 -83 -4 -37 -9
-76 -11 -85 -3 -20 -13 -81 -21 -137 -3 -22 -19 -103 -35 -180 -16 -77 -32
-153 -35 -170 -19 -102 -156 -572 -194 -660 -4 -11 -34 -87 -66 -170 -175
-457 -434 -939 -693 -1293 -45 -61 -199 -261 -289 -376 -101 -128 -496 -621
-501 -626 -4 -3 -46 -53 -94 -112 -48 -58 -93 -112 -100 -120 -7 -7 -19 -22
-27 -34 -8 -12 -33 -41 -55 -66 -22 -24 -58 -66 -80 -93 -22 -26 -51 -60 -65
-75 -14 -15 -52 -58 -85 -95 -33 -38 -65 -73 -70 -79 -70 -75 -107 -116 -102
-116 3 0 21 15 39 33 44 41 245 227 268 247 9 8 61 56 115 105 53 50 109 101
124 114 14 13 73 68 131 122 58 53 115 106 126 116 12 10 68 61 125 113 97 89
181 166 274 249 93 83 231 207 241 216 6 6 44 39 84 75 96 85 227 203 306 275
12 11 36 33 54 49 31 27 334 300 356 321 6 5 48 44 94 85 45 41 92 84 104 95
12 11 62 56 110 100 49 44 98 89 110 100 12 11 71 65 131 120 61 54 115 104
121 110 10 9 156 143 238 219 17 15 54 49 81 75 28 25 104 96 170 156 65 61
126 117 135 125 9 8 46 42 81 75 36 33 117 108 180 166 62 59 128 119 144 134
41 37 262 243 300 280 18 17 87 82 156 145 129 120 243 227 314 295 23 22 102
96 175 165 73 69 150 141 170 160 124 118 340 323 370 350 31 28 116 110 480
457 174 166 220 210 414 397 110 105 223 214 252 241 135 130 554 535 687 665
82 80 186 181 232 225 1293 1255 3315 3276 4775 4775 117 120 629 647 690 710
30 31 157 162 282 291 124 129 243 252 264 274 39 42 335 353 394 414 29 31
258 271 405 426 22 24 78 83 125 132 47 49 150 158 230 242 80 84 163 173 185
196 22 23 101 106 175 185 154 163 149 158 330 349 74 79 145 155 159 169 20
22 141 151 311 332 14 14 79 84 145 155 66 70 138 147 160 170 22 24 85 92
140 151 55 59 114 122 130 139 25 26 185 198 266 286 13 15 67 73 120 130 53
57 107 116 120 130 13 15 67 73 121 130 53 57 107 116 120 130 19 21 125 136
238 259 14 15 63 69 110 121 151 165 175 191 200 219 76 83 197 215 210 230 8
9 49 54 90 100 41 46 82 90 90 100 16 18 149 165 189 209 60 67 151 168 170
190 11 12 51 57 88 99 75 83 75 82 153 172 30 35 60 68 65 74 29 31 224 253
374 426 46 52 96 110 113 128 51 55 16 35 -52 -31z m-9770 -2851 c80 -4 159
-9 175 -10 17 -2 68 -6 115 -10 47 -4 96 -9 110 -11 14 -3 48 -7 75 -10 59 -6
99 -11 140 -19 17 -2 48 -7 70 -11 23 -3 52 -7 65 -10 13 -3 42 -7 64 -11 22
-3 44 -7 47 -10 4 -2 22 -6 40 -8 214 -29 763 -188 1074 -311 212 -84 693
-308 740 -345 6 -4 30 -19 55 -32 197 -110 335 -197 578 -365 171 -120 291
-315 348 -568 14 -61 13 -270 -2 -345 -34 -182 -113 -344 -231 -478 l-38 -43
-40 37 c-22 21 -69 65 -105 98 -36 34 -86 79 -111 101 -44 38 -69 59 -169 141
-62 51 -227 176 -271 205 -20 13 -64 43 -98 67 -35 23 -66 42 -71 42 -5 0 -10
3 -12 8 -4 10 -200 127 -323 194 -381 205 -824 377 -1210 468 -49 11 -117 27
-150 35 -50 12 -103 22 -255 50 -8 1 -55 8 -105 15 -49 6 -101 14 -115 16 -14
2 -54 7 -90 10 -36 3 -76 8 -90 10 -50 8 -299 18 -455 18 -190 0 -440 -13
-560 -29 -22 -3 -62 -8 -90 -11 -27 -3 -75 -9 -105 -14 -30 -5 -71 -12 -90
-15 -19 -3 -46 -7 -60 -10 -14 -3 -41 -7 -60 -10 -19 -3 -87 -17 -150 -31
-108 -24 -169 -40 -314 -79 -87 -23 -414 -133 -447 -151 -16 -8 -31 -14 -34
-14 -3 0 -22 -7 -43 -16 -20 -8 -57 -24 -82 -34 -171 -69 -452 -212 -648 -332
-104 -63 -300 -192 -342 -225 -8 -6 -55 -42 -105 -79 -266 -200 -554 -469
-775 -724 -36 -41 -67 -77 -71 -80 -3 -3 -31 -37 -62 -77 -344 -434 -602 -880
-783 -1353 -25 -63 -49 -124 -54 -135 -25 -56 -136 -428 -154 -515 -3 -14 -16
-74 -30 -135 -23 -99 -50 -245 -61 -321 -2 -16 -6 -42 -9 -59 -4 -26 -16 -129
-31 -268 -23 -216 -23 -733 -1 -912 2 -16 7 -64 11 -105 3 -41 8 -82 10 -90 2
-8 7 -44 10 -80 4 -36 8 -67 10 -70 2 -3 6 -26 10 -50 9 -66 54 -296 72 -365
8 -33 17 -69 19 -79 25 -127 171 -563 240 -713 8 -17 14 -33 14 -36 0 -17 155
-335 215 -442 25 -44 48 -87 52 -95 17 -37 111 -187 206 -330 51 -76 236 -327
260 -352 7 -7 23 -26 36 -43 31 -40 123 -146 192 -220 32 -33 75 -80 97 -104
l41 -45 -42 -39 c-55 -52 -135 -106 -222 -149 -302 -152 -677 -127 -960 63
-94 64 -125 93 -180 167 -42 58 -201 296 -234 353 -194 323 -331 590 -437 849
-19 47 -41 99 -49 115 -37 82 -176 497 -216 647 -35 134 -31 115 -63 258 -14
63 -31 133 -36 155 -5 22 -12 56 -14 75 -3 19 -12 71 -20 115 -9 44 -18 98
-21 120 -2 22 -7 51 -9 65 -3 14 -8 50 -11 80 -3 30 -7 65 -9 77 -3 12 -8 62
-11 110 -4 48 -8 99 -10 113 -8 57 -19 327 -18 490 0 171 11 488 17 499 2 4 7
47 11 96 3 50 8 101 10 115 6 49 17 136 20 165 3 27 10 69 21 130 3 11 7 37 9
57 5 39 31 167 65 328 11 52 34 145 50 205 17 61 39 142 50 180 18 65 83 261
145 435 15 41 31 79 36 85 5 5 9 15 9 22 0 7 9 32 19 56 11 23 43 96 71 162
58 132 166 351 243 490 28 50 55 99 61 110 6 11 18 31 27 45 9 14 53 84 97
156 68 109 199 302 229 339 5 6 26 35 48 65 22 30 42 57 45 60 3 3 21 25 40
50 19 25 39 50 45 56 5 7 26 31 45 55 161 200 464 517 650 680 47 40 87 77 90
80 13 15 214 179 305 247 55 42 102 78 105 81 40 45 561 376 780 496 81 44
407 205 480 238 279 123 775 286 1010 333 14 3 41 9 60 14 40 11 215 45 274
54 21 4 48 8 60 11 12 2 37 7 56 9 19 3 67 10 105 15 39 6 95 13 125 16 30 3
73 7 95 10 93 10 168 15 295 21 74 3 136 7 137 7 4 4 301 -1 433 -7z m26
-1550 c123 -7 322 -27 414 -41 14 -3 43 -7 65 -10 74 -11 330 -64 410 -85 44
-11 89 -23 100 -25 81 -18 445 -143 540 -185 22 -10 69 -30 105 -45 36 -15
121 -55 190 -90 113 -55 158 -80 280 -148 68 -38 245 -151 264 -169 11 -10 24
-18 28 -18 5 0 26 -13 46 -28 20 -16 64 -48 97 -72 75 -55 257 -202 309 -249
22 -20 51 -46 65 -59 96 -86 211 -209 240 -257 54 -89 80 -192 76 -300 -4
-123 -23 -193 -78 -288 -15 -26 -1279 -1297 -3032 -3049 -2549 -2549 -3015
-3011 -3063 -3035 -90 -47 -159 -63 -267 -63 -104 -1 -190 22 -283 76 -52 30
-230 205 -336 329 -38 44 -78 91 -90 105 -12 14 -58 72 -102 130 -374 488
-652 1057 -810 1656 -19 74 -37 145 -39 157 -3 11 -13 64 -24 116 -17 83 -27
138 -46 261 -14 91 -34 291 -40 400 -6 91 -6 489 -1 545 2 22 7 81 11 130 16
192 19 212 61 455 14 85 28 158 31 163 2 4 7 20 9 35 12 68 81 311 129 457 86
259 211 541 350 795 67 122 233 382 247 388 4 2 8 8 8 13 0 6 5 15 10 22 6 7
36 46 68 88 115 152 118 155 172 219 91 107 154 175 285 305 176 177 298 284
500 437 6 4 24 18 40 31 63 50 309 210 437 283 129 74 326 174 438 223 30 13
69 30 85 37 122 54 526 193 607 208 13 2 59 14 103 25 44 12 94 24 110 26 17
3 50 10 75 15 53 12 76 16 195 35 134 21 162 25 224 31 31 3 71 7 90 9 19 3
91 7 160 11 69 3 127 7 128 8 4 3 317 -3 409 -8z"/>
<path d="M15423 13217 c-40 -44 -144 -208 -202 -319 -61 -116 -126 -271 -154
-368 -43 -147 -62 -229 -73 -310 -3 -19 -7 -46 -9 -60 -19 -99 -25 -366 -12
-515 12 -149 33 -261 87 -470 35 -137 70 -297 85 -385 3 -19 8 -42 10 -50 5
-17 15 -84 30 -205 3 -22 7 -49 9 -60 2 -11 7 -54 11 -95 3 -41 8 -88 10 -105
29 -214 24 -812 -10 -1100 -3 -27 -8 -68 -10 -91 -2 -22 -6 -54 -9 -70 -3 -16
-8 -51 -12 -79 -3 -27 -8 -59 -10 -70 -2 -11 -9 -47 -14 -80 -6 -33 -18 -94
-26 -135 -9 -41 -18 -86 -20 -100 -3 -14 -9 -38 -14 -55 -5 -16 -11 -43 -14
-60 -9 -56 -85 -321 -134 -466 -160 -472 -367 -896 -641 -1314 -47 -71 -88
-132 -91 -135 -3 -3 -17 -21 -30 -40 -26 -39 -132 -182 -140 -190 -3 -3 -21
-25 -40 -50 -19 -25 -37 -47 -40 -50 -3 -3 -30 -34 -60 -70 -148 -174 -260
-293 -432 -455 -674 -637 -1516 -1103 -2431 -1345 -64 -17 -125 -33 -135 -35
-9 -2 -49 -10 -87 -19 -39 -8 -82 -17 -95 -19 -14 -3 -62 -12 -108 -21 -123
-23 -305 -50 -427 -62 -33 -3 -76 -7 -95 -9 -219 -25 -773 -25 -990 0 -19 2
-63 6 -97 9 -96 10 -361 48 -423 61 -14 3 -38 8 -55 10 -70 13 -231 49 -395
90 -96 24 -206 48 -245 54 -38 6 -86 13 -105 16 -58 10 -430 13 -495 5 -92
-12 -158 -22 -180 -26 -11 -2 -33 -7 -50 -10 -159 -28 -380 -106 -560 -196
-93 -46 -284 -167 -348 -220 l-28 -23 68 -39 c37 -22 88 -51 113 -64 25 -14
74 -41 110 -60 309 -168 773 -366 1115 -475 372 -119 846 -228 1135 -262 30
-3 66 -8 80 -10 58 -9 127 -17 270 -31 148 -14 282 -19 595 -19 320 0 461 5
615 21 114 11 212 22 255 28 17 3 53 7 80 11 28 4 61 8 75 10 14 3 43 7 65 10
470 72 1170 275 1562 456 24 10 45 19 48 19 15 0 392 183 525 256 290 157 597
355 865 558 66 50 125 95 131 101 6 5 30 26 54 45 189 152 327 277 535 485 83
83 186 190 230 239 44 49 85 94 90 100 9 9 176 211 233 281 76 94 258 351 351
495 40 63 84 131 96 150 34 52 132 223 187 325 113 212 300 612 307 658 0 4 7
20 14 35 35 68 142 373 212 602 12 39 69 251 80 298 3 9 9 37 15 62 14 56 77
363 84 410 35 230 45 304 51 355 3 33 8 78 10 100 25 238 29 331 30 685 0 307
-5 437 -21 590 -2 25 -6 68 -9 96 -2 28 -7 73 -10 100 -3 27 -8 67 -11 89 -16
134 -77 475 -110 613 -8 37 -17 75 -19 86 -50 239 -234 802 -340 1041 -7 17
-41 93 -75 170 -91 206 -336 675 -359 690 -5 2 -17 -6 -28 -18z"/>
<path d="M13905 12173 c-64 -78 -125 -199 -151 -298 -22 -88 -27 -259 -10
-345 7 -36 30 -129 50 -208 37 -141 41 -159 52 -217 3 -16 9 -48 14 -70 5 -22
12 -60 15 -85 4 -24 8 -47 10 -50 2 -3 7 -35 10 -70 4 -36 8 -67 10 -70 2 -3
6 -39 9 -80 4 -41 9 -88 11 -105 22 -178 23 -719 1 -855 -3 -14 -7 -55 -10
-92 -7 -75 -9 -92 -37 -268 -64 -399 -188 -804 -369 -1200 -60 -133 -178 -357
-236 -448 -19 -29 -34 -54 -34 -57 0 -15 -247 -364 -319 -451 -14 -17 -39 -48
-56 -69 -116 -148 -390 -428 -565 -575 -36 -30 -67 -57 -70 -60 -3 -3 -45 -37
-95 -75 -49 -38 -92 -72 -95 -75 -3 -3 -30 -22 -60 -43 -514 -359 -1020 -594
-1590 -737 -160 -40 -380 -84 -485 -95 -33 -4 -62 -9 -65 -10 -3 -2 -37 -6
-75 -10 -39 -3 -83 -8 -100 -10 -183 -23 -764 -23 -886 0 -12 2 -49 7 -83 10
-33 3 -104 12 -156 20 -85 13 -113 17 -185 30 -79 14 -246 52 -389 90 -164 43
-172 44 -295 41 -140 -4 -229 -25 -334 -77 -83 -41 -217 -142 -205 -154 18
-19 468 -185 593 -220 28 -8 75 -21 105 -30 30 -9 62 -18 70 -20 14 -4 87 -23
120 -30 157 -37 438 -87 555 -99 22 -3 60 -7 85 -10 318 -40 784 -40 1140 0
30 3 69 8 85 9 17 2 44 6 60 9 17 3 53 8 80 11 28 4 69 10 93 16 23 5 59 12
80 15 20 3 65 12 100 20 34 7 74 16 90 19 15 3 86 21 157 40 72 19 137 37 145
39 8 2 49 14 90 27 41 13 78 23 82 24 3 0 10 3 14 8 4 4 14 7 22 7 8 0 28 6
45 14 18 7 61 24 97 36 174 60 589 252 730 338 19 12 42 25 50 29 53 23 377
235 480 313 62 47 225 174 230 180 3 3 21 18 40 34 126 102 389 358 510 495
36 40 70 79 75 85 13 14 163 196 178 216 438 572 769 1265 926 1937 50 214 95
457 106 572 2 25 7 69 10 96 4 28 8 66 10 85 24 198 24 732 0 930 -2 19 -6 64
-10 100 -3 36 -7 75 -9 86 -2 12 -7 45 -11 75 -9 77 -33 219 -56 329 -11 52
-23 106 -25 120 -14 72 -78 302 -119 430 -46 141 -182 500 -190 500 -3 0 -29
-30 -60 -67z"/>
</g>
</svg>
